<?xml version="1.0" encoding="UTF-8"?>
<!DOCTYPE svg PUBLIC "-//W3C//DTD SVG 1.1//EN" "http://www.w3.org/Graphics/SVG/1.1/DTD/svg11.dtd">
<svg xmlns="http://www.w3.org/2000/svg" version="1.1" width="1317px" height="439px" style="shape-rendering:geometricPrecision; text-rendering:geometricPrecision; image-rendering:optimizeQuality; fill-rule:evenodd; clip-rule:evenodd" xmlns:xlink="http://www.w3.org/1999/xlink">
<g><path style="opacity:0.9" fill="#a03639" d="M 211.5,17.5 C 204.826,17.7129 198.159,18.0462 191.5,18.5C 198.117,16.6144 204.783,16.281 211.5,17.5 Z"/></g>
<g><path style="opacity:1" fill="#f8575c" d="M 211.5,17.5 C 233.696,19.5133 250.863,29.8466 263,48.5C 294.611,107.056 324.611,166.389 353,226.5C 361.295,245.406 369.961,264.072 379,282.5C 383.601,292.471 387.101,302.804 389.5,313.5C 389.376,319.069 390.043,324.402 391.5,329.5C 391.5,333.5 391.5,337.5 391.5,341.5C 389.612,343.988 388.945,346.988 389.5,350.5C 380.753,385.58 358.753,407.246 323.5,415.5C 313.521,416.296 303.521,416.629 293.5,416.5C 278.512,414.559 264.512,409.726 251.5,402C 234.521,390.862 219.188,377.696 205.5,362.5C 191.849,376.99 176.849,389.823 160.5,401C 149.908,407.466 138.574,411.966 126.5,414.5C 123.848,414.41 121.515,415.076 119.5,416.5C 78.2194,421.248 47.386,405.582 27,369.5C 15.4952,343.055 15.8285,316.721 28,290.5C 65.0329,209.421 104.366,129.421 146,50.5C 154.361,38.1359 165.195,28.6359 178.5,22C 182.826,20.6691 187.16,19.5024 191.5,18.5C 198.159,18.0462 204.826,17.7129 211.5,17.5 Z M 212.5,43.5 C 214.936,44.871 217.603,45.871 220.5,46.5C 227.432,49.23 233.266,53.5634 238,59.5C 246.427,72.6815 254.093,86.3481 261,100.5C 294.346,166.192 326.346,232.526 357,299.5C 372.079,331.333 366.246,358.5 339.5,381C 325.914,389.084 311.248,392.251 295.5,390.5C 293.039,389.469 290.373,388.802 287.5,388.5C 270.677,382.755 255.677,373.922 242.5,362C 235.833,355.333 229.167,348.667 222.5,342C 245.658,315.19 262.158,284.69 272,250.5C 273.644,239.5 273.81,228.5 272.5,217.5C 272.59,214.848 271.924,212.515 270.5,210.5C 263.096,185.126 246.429,169.793 220.5,164.5C 212.555,162.444 204.555,162.111 196.5,163.5C 166.632,167.379 147.632,183.712 139.5,212.5C 138.232,214.905 137.565,217.572 137.5,220.5C 136.221,227.505 136.221,234.505 137.5,241.5C 137.549,245.078 138.215,248.411 139.5,251.5C 141.06,260.402 143.56,269.069 147,277.5C 157.861,300.736 171.361,322.236 187.5,342C 170.834,362.658 150.167,377.991 125.5,388C 117.271,389.961 108.937,391.128 100.5,391.5C 97.997,390.629 95.3303,389.963 92.5,389.5C 65.7351,382.735 50.0684,365.735 45.5,338.5C 45.3748,332.797 45.7081,327.13 46.5,321.5C 47.9546,314.301 50.1213,307.301 53,300.5C 88.2973,222.24 125.964,145.24 166,69.5C 175.659,50.5832 191.159,41.9165 212.5,43.5 Z M 198.5,189.5 C 234.175,189.343 250.009,207.01 246,242.5C 238.556,271.724 225.056,297.724 205.5,320.5C 187.955,299.755 174.789,276.422 166,250.5C 162.776,238.488 162.776,226.488 166,214.5C 172.401,200.251 183.234,191.917 198.5,189.5 Z"/></g>
<g><path style="opacity:0.875" fill="#8c2f31" d="M 212.5,43.5 C 215.716,43.3455 218.383,44.3455 220.5,46.5C 217.603,45.871 214.936,44.871 212.5,43.5 Z"/></g>
<g><path style="opacity:1" fill="#f7575c" d="M 661.5,91.5 C 683.325,89.8322 694.491,99.8322 695,121.5C 688.935,141.449 676.102,147.949 656.5,141C 641.602,131.211 638.435,118.377 647,102.5C 650.873,97.4896 655.706,93.8229 661.5,91.5 Z"/></g>
<g><path style="opacity:1" fill="#fb585d" d="M 857.5,174.5 C 867.963,164.446 880.629,159.446 895.5,159.5C 944.031,164.337 970.031,191.17 973.5,240C 969.835,288.497 943.835,314.997 895.5,319.5C 880.493,319.89 867.659,314.89 857,304.5C 856.667,306.833 856.333,309.167 856,311.5C 855.623,312.942 854.79,313.942 853.5,314.5C 841.833,314.5 830.167,314.5 818.5,314.5C 818.5,240.5 818.5,166.5 818.5,92.5C 830.833,92.5 843.167,92.5 855.5,92.5C 855.167,120.175 855.5,147.841 856.5,175.5C 857.107,175.376 857.44,175.043 857.5,174.5 Z M 885.5,196.5 C 922.913,198.41 938.079,217.744 931,254.5C 925.335,269.593 914.502,278.426 898.5,281C 881.733,284.08 867.9,279.247 857,266.5C 856.333,248.5 856.333,230.5 857,212.5C 864.496,203.484 873.996,198.15 885.5,196.5 Z"/></g>
<g><path style="opacity:1" fill="#fb585d" d="M 1182.5,91.5 C 1183.16,119.434 1183.83,147.434 1184.5,175.5C 1185.11,175.376 1185.44,175.043 1185.5,174.5C 1195.85,164.542 1208.35,159.542 1223,159.5C 1250.67,160.082 1272.17,171.749 1287.5,194.5C 1287.43,196.027 1288.09,197.027 1289.5,197.5C 1305.42,226.027 1305.25,254.694 1289,283.5C 1266.61,314.763 1236.78,325.263 1199.5,315C 1194.08,312.406 1189.42,308.906 1185.5,304.5C 1185.44,303.957 1185.11,303.624 1184.5,303.5C 1183.52,306.086 1183.19,308.753 1183.5,311.5C 1183.49,313.017 1182.82,314.184 1181.5,315C 1169.5,315.5 1157.5,315.667 1145.5,315.5C 1145.5,240.833 1145.5,166.167 1145.5,91.5C 1157.83,91.5 1170.17,91.5 1182.5,91.5 Z M 1222.5,281.5 C 1216.79,281.687 1211.12,281.354 1205.5,280.5C 1197.04,278.189 1190.21,273.522 1185,266.5C 1184.33,248.167 1184.33,229.833 1185,211.5C 1203.92,193.827 1224.42,191.993 1246.5,206C 1256.26,214.957 1261.26,226.124 1261.5,239.5C 1259.87,264.113 1246.87,278.113 1222.5,281.5 Z"/></g>
<g><path style="opacity:0.408" fill="#692425" d="M 1185.5,174.5 C 1185.44,175.043 1185.11,175.376 1184.5,175.5C 1183.83,147.434 1183.16,119.434 1182.5,91.5C 1182.81,90.2617 1183.31,90.2617 1184,91.5C 1184.17,119.336 1184.67,147.003 1185.5,174.5 Z"/></g>
<g><path style="opacity:0.82" fill="#c9464a" d="M 857.5,174.5 C 857.44,175.043 857.107,175.376 856.5,175.5C 855.5,147.841 855.167,120.175 855.5,92.5C 843.167,92.5 830.833,92.5 818.5,92.5C 818.5,166.5 818.5,240.5 818.5,314.5C 830.167,314.5 841.833,314.5 853.5,314.5C 841.678,315.495 829.678,315.828 817.5,315.5C 817.5,240.833 817.5,166.167 817.5,91.5C 830.5,91.5 843.5,91.5 856.5,91.5C 856.169,119.338 856.502,147.005 857.5,174.5 Z"/></g>
<g><path style="opacity:0.947" fill="#b03f42" d="M 1078.5,161.5 C 1068.47,161.301 1058.47,161.634 1048.5,162.5C 1058.43,159.243 1068.43,158.91 1078.5,161.5 Z"/></g>
<g><path style="opacity:1" fill="#fa585d" d="M 590.5,164.5 C 602.167,164.5 613.833,164.5 625.5,164.5C 625.5,214.5 625.5,264.5 625.5,314.5C 613.833,314.5 602.167,314.5 590.5,314.5C 587.065,312.19 585.565,308.856 586,304.5C 575.708,314.661 563.208,319.661 548.5,319.5C 512.615,318.082 488.282,300.749 475.5,267.5C 475.771,265.62 475.104,264.287 473.5,263.5C 465.426,230.317 473.426,201.817 497.5,178C 518.596,161.247 542.262,156.247 568.5,163C 575.312,165.48 581.146,169.313 586,174.5C 585.565,170.144 587.065,166.81 590.5,164.5 Z M 550.5,196.5 C 564.729,195.962 576.563,200.962 586,211.5C 586.667,230.167 586.667,248.833 586,267.5C 574.671,279.387 560.838,283.887 544.5,281C 517.607,273.737 506.44,256.237 511,228.5C 517.185,209.143 530.352,198.476 550.5,196.5 Z"/></g>
<g><path style="opacity:1" fill="#fd595e" d="M 801.5,161.5 C 801.828,173.678 801.495,185.678 800.5,197.5C 798.901,197.768 797.568,197.434 796.5,196.5C 789.48,194.078 782.48,194.078 775.5,196.5C 765.598,197.95 757.265,202.283 750.5,209.5C 749.502,244.329 749.168,279.329 749.5,314.5C 736.833,314.5 724.167,314.5 711.5,314.5C 711.5,264.5 711.5,214.5 711.5,164.5C 723.167,164.5 734.833,164.5 746.5,164.5C 748.19,164.856 749.19,165.856 749.5,167.5C 749.187,170.247 749.52,172.914 750.5,175.5C 751.107,175.376 751.44,175.043 751.5,174.5C 760.798,165.191 772.131,160.191 785.5,159.5C 790.864,160.108 796.197,160.775 801.5,161.5 Z"/></g>
<g><path style="opacity:1" fill="#fd595e" d="M 1078.5,161.5 C 1094.34,164.17 1107.18,171.836 1117,184.5C 1119.59,188.567 1121.43,192.901 1122.5,197.5C 1122.41,200.152 1123.08,202.485 1124.5,204.5C 1125.53,208.304 1125.86,211.97 1125.5,215.5C 1125.5,248.5 1125.5,281.5 1125.5,314.5C 1112.83,314.5 1100.17,314.5 1087.5,314.5C 1087.48,284.125 1087.48,253.959 1087.5,224C 1087.09,214.39 1083.42,206.39 1076.5,200C 1073.39,198.132 1070.06,196.965 1066.5,196.5C 1061.17,193.833 1055.83,193.833 1050.5,196.5C 1041.29,198.729 1033.62,203.396 1027.5,210.5C 1026.5,244.996 1026.17,279.663 1026.5,314.5C 1013.83,314.5 1001.17,314.5 988.5,314.5C 988.5,264.5 988.5,214.5 988.5,164.5C 999.5,164.5 1010.5,164.5 1021.5,164.5C 1022.46,164.953 1023.29,165.619 1024,166.5C 1025.23,169.342 1025.73,172.009 1025.5,174.5C 1031.92,168.121 1039.59,164.121 1048.5,162.5C 1058.47,161.634 1068.47,161.301 1078.5,161.5 Z"/></g>
<g><path style="opacity:0.528" fill="#7c282a" d="M 196.5,163.5 C 204.555,162.111 212.555,162.444 220.5,164.5C 212.517,163.834 204.517,163.501 196.5,163.5 Z"/></g>
<g><path style="opacity:0.537" fill="#812b2c" d="M 801.5,161.5 C 802.825,173.673 802.825,186.006 801.5,198.5C 800.893,198.376 800.56,198.043 800.5,197.5C 801.495,185.678 801.828,173.678 801.5,161.5 Z"/></g>
<g><path style="opacity:0.49" fill="#7d272b" d="M 590.5,164.5 C 602.322,163.505 614.322,163.172 626.5,163.5C 626.5,214.167 626.5,264.833 626.5,315.5C 614.322,315.828 602.322,315.495 590.5,314.5C 602.167,314.5 613.833,314.5 625.5,314.5C 625.5,264.5 625.5,214.5 625.5,164.5C 613.833,164.5 602.167,164.5 590.5,164.5 Z"/></g>
<g><path style="opacity:1" fill="#fe5a5f" d="M 649.5,164.5 C 662.167,164.5 674.833,164.5 687.5,164.5C 687.5,214.5 687.5,264.5 687.5,314.5C 674.833,314.5 662.167,314.5 649.5,314.5C 649.5,264.5 649.5,214.5 649.5,164.5 Z"/></g>
<g><path style="opacity:0.373" fill="#692224" d="M 649.5,164.5 C 662.323,163.505 675.323,163.171 688.5,163.5C 688.5,214.167 688.5,264.833 688.5,315.5C 675.323,315.829 662.323,315.495 649.5,314.5C 662.167,314.5 674.833,314.5 687.5,314.5C 687.5,264.5 687.5,214.5 687.5,164.5C 674.833,164.5 662.167,164.5 649.5,164.5 Z"/></g>
<g><path style="opacity:0.329" fill="#57181a" d="M 746.5,164.5 C 734.833,164.5 723.167,164.5 711.5,164.5C 711.5,214.5 711.5,264.5 711.5,314.5C 711.5,314.833 711.5,315.167 711.5,315.5C 710.501,265.003 710.168,214.336 710.5,163.5C 722.678,163.172 734.678,163.505 746.5,164.5 Z"/></g>
<g><path style="opacity:0.545" fill="#742528" d="M 1021.5,164.5 C 1010.5,164.5 999.5,164.5 988.5,164.5C 988.5,214.5 988.5,264.5 988.5,314.5C 1001.17,314.5 1013.83,314.5 1026.5,314.5C 1026.17,279.663 1026.5,244.996 1027.5,210.5C 1027.5,245.5 1027.5,280.5 1027.5,315.5C 1014.17,315.5 1000.83,315.5 987.5,315.5C 987.5,264.833 987.5,214.167 987.5,163.5C 999.012,163.172 1010.35,163.505 1021.5,164.5 Z"/></g>
<g><path style="opacity:0.612" fill="#953034" d="M 749.5,167.5 C 750.167,169.833 750.833,172.167 751.5,174.5C 751.44,175.043 751.107,175.376 750.5,175.5C 749.52,172.914 749.187,170.247 749.5,167.5 Z"/></g>
<g><path style="opacity:0.757" fill="#963135" d="M 796.5,196.5 C 789.467,195.65 782.467,195.65 775.5,196.5C 782.48,194.078 789.48,194.078 796.5,196.5 Z"/></g>
<g><path style="opacity:0.759" fill="#953134" d="M 1066.5,196.5 C 1061.17,195.167 1055.83,195.167 1050.5,196.5C 1055.83,193.833 1061.17,193.833 1066.5,196.5 Z"/></g>
<g><path style="opacity:0.553" fill="#732829" d="M 1287.5,194.5 C 1288.91,194.973 1289.57,195.973 1289.5,197.5C 1288.09,197.027 1287.43,196.027 1287.5,194.5 Z"/></g>
<g><path style="opacity:0.71" fill="#993336" d="M 1122.5,197.5 C 1123.92,199.515 1124.59,201.848 1124.5,204.5C 1123.08,202.485 1122.41,200.152 1122.5,197.5 Z"/></g>
<g><path style="opacity:0.612" fill="#9b3236" d="M 750.5,209.5 C 750.5,244.833 750.5,280.167 750.5,315.5C 737.5,315.5 724.5,315.5 711.5,315.5C 711.5,315.167 711.5,314.833 711.5,314.5C 724.167,314.5 736.833,314.5 749.5,314.5C 749.168,279.329 749.502,244.329 750.5,209.5 Z"/></g>
<g><path style="opacity:0.671" fill="#902f32" d="M 270.5,210.5 C 271.924,212.515 272.59,214.848 272.5,217.5C 271.076,215.485 270.41,213.152 270.5,210.5 Z"/></g>
<g><path style="opacity:0.592" fill="#903033" d="M 139.5,212.5 C 139.706,215.495 139.04,218.162 137.5,220.5C 137.565,217.572 138.232,214.905 139.5,212.5 Z"/></g>
<g><path style="opacity:0.545" fill="#8c2c30" d="M 1125.5,215.5 C 1126.5,248.662 1126.83,281.996 1126.5,315.5C 1113.32,315.829 1100.32,315.495 1087.5,314.5C 1100.17,314.5 1112.83,314.5 1125.5,314.5C 1125.5,281.5 1125.5,248.5 1125.5,215.5 Z"/></g>
<g><path style="opacity:0.851" fill="#973336" d="M 137.5,241.5 C 139.011,244.544 139.678,247.878 139.5,251.5C 138.215,248.411 137.549,245.078 137.5,241.5 Z"/></g>
<g><path style="opacity:0.588" fill="#662324" d="M 473.5,263.5 C 475.104,264.287 475.771,265.62 475.5,267.5C 474.326,266.486 473.66,265.153 473.5,263.5 Z"/></g>
<g><path style="opacity:0.418" fill="#7c272a" d="M 1205.5,280.5 C 1211.12,281.354 1216.79,281.687 1222.5,281.5C 1217.68,282.65 1212.68,282.816 1207.5,282C 1206.58,281.722 1205.92,281.222 1205.5,280.5 Z"/></g>
<g><path style="opacity:0.407" fill="#602122" d="M 1185.5,304.5 C 1184.83,306.833 1184.17,309.167 1183.5,311.5C 1183.19,308.753 1183.52,306.086 1184.5,303.5C 1185.11,303.624 1185.44,303.957 1185.5,304.5 Z"/></g>
<g><path style="opacity:0.682" fill="#a1373a" d="M 389.5,313.5 C 391.178,318.568 391.844,323.902 391.5,329.5C 390.043,324.402 389.376,319.069 389.5,313.5 Z"/></g>
<g><path style="opacity:0.6" fill="#933033" d="M 46.5,321.5 C 45.7081,327.13 45.3748,332.797 45.5,338.5C 44.8367,336.359 44.5034,334.025 44.5,331.5C 44.3148,327.859 44.9814,324.526 46.5,321.5 Z"/></g>
<g><path style="opacity:0.937" fill="#973437" d="M 391.5,341.5 C 391.324,344.727 390.657,347.727 389.5,350.5C 388.945,346.988 389.612,343.988 391.5,341.5 Z"/></g>
<g><path style="opacity:0.69" fill="#772729" d="M 287.5,388.5 C 290.373,388.802 293.039,389.469 295.5,390.5C 292.447,390.889 289.78,390.223 287.5,388.5 Z"/></g>
<g><path style="opacity:0.596" fill="#8e2e31" d="M 92.5,389.5 C 95.3303,389.963 97.997,390.629 100.5,391.5C 97.3019,392.036 94.6353,391.369 92.5,389.5 Z"/></g>
<g><path style="opacity:0.482" fill="#822b2e" d="M 126.5,414.5 C 124.485,415.924 122.152,416.59 119.5,416.5C 121.515,415.076 123.848,414.41 126.5,414.5 Z"/></g>
<g><path style="opacity:0.882" fill="#b13c3f" d="M 323.5,415.5 C 317.74,417 311.74,417.667 305.5,417.5C 301.319,417.499 297.319,417.166 293.5,416.5C 303.521,416.629 313.521,416.296 323.5,415.5 Z"/></g>
</svg>
